<?xml version="1.0" encoding="UTF-8" standalone="no"?>
<!-- Created with Inkscape (http://www.inkscape.org/) -->

<svg
   width="1024"
   height="1024"
   viewBox="0 0 199.33243 203.00471"
   version="1.1"
   id="svg5"
   inkscape:version="1.1.2 (0a00cf5339, 2022-02-04)"
   sodipodi:docname="markright.svg"
   xmlns:inkscape="http://www.inkscape.org/namespaces/inkscape"
   xmlns:sodipodi="http://sodipodi.sourceforge.net/DTD/sodipodi-0.dtd"
   xmlns="http://www.w3.org/2000/svg"
   xmlns:svg="http://www.w3.org/2000/svg">
  <sodipodi:namedview
     id="namedview7"
     pagecolor="#ffffff"
     bordercolor="#666666"
     borderopacity="1.0"
     inkscape:pageshadow="2"
     inkscape:pageopacity="0.0"
     inkscape:pagecheckerboard="0"
     inkscape:document-units="px"
     showgrid="false"
     units="px"
     width="1024px"
     inkscape:zoom="0.28284582"
     inkscape:cx="-120.20683"
     inkscape:cy="330.56879"
     inkscape:window-width="1600"
     inkscape:window-height="813"
     inkscape:window-x="0"
     inkscape:window-y="0"
     inkscape:window-maximized="1"
     inkscape:current-layer="g3496"
     fit-margin-top="20"
     fit-margin-left="20"
     fit-margin-right="20"
     fit-margin-bottom="20" />
  <defs
     id="defs2" />
  <g
     inkscape:label="Layer 1"
     inkscape:groupmode="layer"
     id="layer1"
     transform="translate(-35.556415,-34.918189)">
    <g
       id="g3496"
       transform="translate(35.854287,-10.16491)">
      <g
         id="g3547"
         transform="translate(0,0.68371448)">
        <path
           style="fill:#87cdde;stroke:none;stroke-width:0.388204"
           d="m 16.022681,105.1669 h -0.356838 c 0,2.84058 -0.915801,8.45035 0.257717,10.94547 1.271831,2.70373 5.347462,4.71274 7.592724,6.04138 9.450326,5.59245 22.254004,6.52749 32.115443,1.8536 12.758037,-6.04689 19.892304,-19.43423 26.1384,-33.199571 2.401166,-5.291347 5.411096,-10.543829 7.404394,-16.048442 h 0.356839 c 0,12.6808 1.427352,25.317263 1.427352,38.009453 0,3.77519 -0.5845,10.72754 3.211544,12.04815 4.287768,1.49166 6.406664,-7.10945 7.989254,-10.35884 3.61049,-7.41353 6.90232,-15.101151 10.70514,-22.383339 2.85578,-5.468302 6.43202,-11.342873 8.42532,-17.315424 h 0.35683 c 0,12.339565 -0.62874,25.376793 -2.06181,37.587133 -0.42677,3.63665 -1.13083,10.84789 2.41864,12.3649 1.97047,0.84212 3.89633,-0.14526 4.90654,-2.22904 3.59193,-7.4089 6.2047,-15.24307 12.2217,-20.51794 8.26545,-7.246294 22.73595,-3.977058 32.47229,-3.977058 v 0.422338 c -3.6476,1.360311 -9.90513,6.69937 -12.40013,10.17091 -1.20576,1.6779 -1.02127,4.63335 0.65408,5.83064 2.38653,1.70536 4.96862,-1.28387 6.75031,-2.8507 4.93829,-4.34279 10.2045,-8.33252 14.98721,-12.904637 1.59578,-1.525023 2.45362,-4.36983 1.24893,-6.581122 -1.09871,-2.016621 -3.21476,-3.212651 -4.81731,-4.586898 -3.86421,-3.313585 -7.89826,-6.350117 -11.77566,-9.643003 -1.73568,-1.474345 -3.66688,-3.969031 -6.05627,-2.874359 -2.00935,0.920672 -2.22988,4.296335 -0.9317,6.029987 2.53283,3.382835 8.15197,7.570635 11.62686,9.384953 v 0.422338 c -10.42039,0 -24.60757,-3.02513 -33.89964,3.542904 -4.96932,3.512497 -7.39725,8.833387 -11.06198,13.772507 1.18399,-13.339634 1.70211,-26.769635 2.82509,-40.121089 0.39823,-4.734289 -2.66844,-8.819883 -6.75032,-6.381788 -3.49665,2.088409 -5.40396,8.044489 -7.27556,11.872042 -3.85172,7.877248 -7.80084,15.7017 -11.54765,23.650333 -1.70639,3.619762 -3.417081,9.235872 -6.155457,11.825162 0,-6.76822 -0.713677,-13.520388 -0.713677,-20.271713 0,-8.184281 0.005,-16.775684 -0.743294,-24.917309 -0.251928,-2.740904 -1.923715,-4.326321 -4.252442,-4.211447 -2.686634,0.132181 -3.945559,3.483776 -5.084944,5.900756 C 83.32844,71.624824 80.427345,77.799249 77.676479,84.050536 72.967285,94.751472 67.513726,106.561 58.843271,113.42593 46.33188,123.33162 24.60614,121.1786 16.022681,105.1669"
           id="path1815" />
        <path
           style="fill:#000000;stroke:none;stroke-width:0.388204"
           d="m 39.752861,225.90703 v 5.91257 l 126.320729,0.42234 v -6.33491 z"
           id="path2858" />
        <path
           style="fill:#000000;stroke:none;stroke-width:0.388204"
           d="m 69.727281,192.9655 h 73.865519 16.05772 l 5.94742,-0.30492 0.47567,-6.02999 H 92.208092 75.436693 l -5.808614,0.56297 0.0992,5.77194"
           id="path2856" />
        <path
           style="fill:#000000;stroke:none;stroke-width:0.388204"
           d="m 39.39603,181.56267 v 16.47076 H 53.312722 V 181.56267 H 39.39603"
           id="path2854" />
        <path
           style="fill:#000000;stroke:none;stroke-width:0.388204"
           d="m 166.07361,154.11139 v -6.33491 H 68.656766 47.603309 c -1.768846,0 -6.299943,-0.97009 -7.731506,0.30492 -0.8127,0.72388 -1.185294,3.15651 -0.465853,4.34068 1.414415,2.32807 7.126844,1.68931 7.126844,1.68931 h 22.48081 97.060006"
           id="path2852" />
      </g>
    </g>
  </g>
  <g
     inkscape:groupmode="layer"
     id="layer2"
     inkscape:label="Layer 2"
     transform="translate(-35.556415,-34.918189)" />
</svg>
